Coordinates
version=1
nRows=13
nColumns=34
inDegrees=yes

Units are S.I. units (second, meters, Newtons, ...)
If the header above contains a line with 'inDegrees', this indicates whether rotational values are in degrees (yes) or radians (no).

endheader
time	pelvis_tilt	pelvis_list	pelvis_rotation	pelvis_tx	pelvis_ty	pelvis_tz	hip_flexion_r	hip_adduction_r	hip_rotation_r	knee_angle_r	ankle_angle_r	subtalar_angle_r	mtp_angle_r	hip_flexion_l	hip_adduction_l	hip_rotation_l	knee_angle_l	ankle_angle_l	subtalar_angle_l	mtp_angle_l	lumbar_extension	lumbar_bending	lumbar_rotation	arm_flex_r	arm_add_r	arm_rot_r	elbow_flex_r	pro_sup_r	arm_flex_l	arm_add_l	arm_rot_l	elbow_flex_l	pro_sup_l
      2.01666670	     -3.12025542	      2.40038124	     -4.30861011	      1.75848378	      0.87783804	     -0.17667178	      1.44836813	     -6.39114977	      2.91082064	      0.00000000	      2.36228743	    -21.15008059	      0.00000000	      1.51585525	     -0.92442717	     -1.71756556	      2.14063173	      2.34134895	     -9.73533417	      0.00000000	     -8.79289473	      0.20966355	     -2.95162909	     12.68745787	     -7.52218206	     40.09116640	     95.68134184	     87.16126329	      7.77810423	     -8.79000760	     26.68569631	     92.45692586	     82.81529189
      2.03333330	     -3.37709916	      2.40692388	     -4.40733720	      1.75673925	      0.87681870	     -0.17711206	      1.90581825	     -6.37808225	      2.82546620	      0.00000000	      2.33241904	    -21.00428265	      0.00000000	      2.09962757	     -0.94011706	     -2.01889761	      2.45429488	      2.20280805	     -9.83760307	      0.00000000	     -9.18693078	      0.29089145	     -2.98901205	     12.88154725	     -7.61387701	     40.04560772	     95.44477099	     87.17255920	      8.10843582	     -8.72145342	     26.81734408	     92.09529888	     82.87805210
      2.05000000	     -4.01918486	      2.40893790	     -4.44827652	      1.75542038	      0.87442718	     -0.17717351	      2.75593092	     -6.33125978	      2.57988023	      0.00000000	      2.46014996	    -20.58443841	      0.00000000	      3.09584184	     -0.98771176	     -2.13474563	      2.79151181	      2.35445036	    -10.00614481	      0.00000000	     -8.81893952	      0.39386783	     -2.82861880	     12.78580581	     -7.82404506	     40.13394668	     94.80850920	     87.28274403	      8.56244721	     -8.49816649	     27.39036564	     90.75653323	     83.21873173
      2.06666670	     -4.20536665	      2.43653053	     -4.52949895	      1.75381896	      0.87254394	     -0.17706665	      3.13855827	     -6.34011746	      2.52216709	      0.00000000	      2.51603317	    -20.55722968	      0.00000000	      3.52158782	     -0.97823665	     -2.36533086	      2.92725616	      2.22458176	    -10.01848288	      0.00000000	     -9.35562451	      0.41114808	     -2.90895956	     12.89686771	     -7.84607374	     40.02828537	     94.73014965	     87.29965777	      8.86112838	     -8.39378127	     27.36983443	     90.64661229	     83.27603359
      2.08333330	     -4.45384128	      2.44033229	     -4.60631280	      1.75225037	      0.87169505	     -0.17733038	      3.57686507	     -6.31843574	      2.47742741	      0.00000000	      2.56482993	    -20.46788204	      0.00000000	      4.04860795	     -1.00385626	     -2.59048129	      3.14179085	      2.21347715	    -10.03912605	      0.00000000	     -9.80070360	      0.46367774	     -2.95168722	     12.98619508	     -7.89275794	     39.95915268	     94.62193770	     87.33004351	      9.22720500	     -8.24920180	     27.35064591	     90.54826631	     83.35408461
      2.10000000	     -4.74812269	      2.45224327	     -4.65848431	      1.75058996	      0.87210422	     -0.17757309	      4.04417926	     -6.30334469	      2.45670114	      0.00084236	      2.62916764	    -20.35139627	      0.00000000	      4.61121696	     -1.03454567	     -2.77981393	      3.33849613	      2.22059324	    -10.01806790	      0.00000000	    -10.21228241	      0.52546331	     -3.00102843	     13.10287969	     -7.95739759	     39.90503479	     94.47575293	     87.36221332	      9.64170695	     -8.09253494	     27.36351597	     90.50195164	     83.43365315
      2.11666670	     -4.95418176	      2.47488874	     -4.75186051	      1.74936967	      0.87309056	     -0.17707123	      4.38226516	     -6.29730803	      2.43899419	      0.00007510	      2.66814335	    -20.33525742	      0.00000000	      4.88261864	     -1.03824415	     -2.84813974	      3.26510414	      2.24023690	    -10.02304666	      0.00000000	    -10.69262600	      0.57196466	     -3.12182171	     13.07670617	     -8.05608926	     39.88433252	     94.35422468	     87.36722176	      9.79294389	     -8.05821064	     27.37074896	     90.45039142	     83.44986847
      2.13333330	     -5.30947352	      2.47027495	     -4.70052253	      1.74697629	      0.87439429	     -0.17618215	      4.97386354	     -6.22599048	      2.46330787	      0.10512637	      2.73692105	    -20.13637484	      0.00000000	      5.76655655	     -1.15949448	     -3.23310191	      3.87341249	      2.04575950	     -9.94453540	      0.00000000	    -11.23203867	      0.64066661	     -3.08923499	     13.50137383	     -7.98763510	     39.80558572	     94.03039659	     87.39740356	     10.70691256	     -7.84037886	     27.36168928	     90.56646930	     83.52955289
      2.15000000	     -6.32804133	      2.49310951	     -4.73164078	      1.74541014	      0.87389153	     -0.17526238	      6.60232932	     -6.08992103	      2.16857724	      0.82453686	      3.43750691	    -19.33917132	      0.00000000	      7.47648132	     -1.37221192	     -3.86355443	      4.82254315	      2.60490539	     -9.39594568	      0.00000000	    -10.73399629	      0.64520843	     -2.89902603	     13.56617661	     -7.97119076	     39.93049931	     92.86915451	     87.68173574	     11.38730025	     -8.03799185	     28.58553581	     90.26274175	     84.15848579
      2.16666670	     -6.52495656	      2.50816457	     -4.70869885	      1.74399671	      0.87484259	     -0.17516125	      7.06662291	     -6.04765724	      2.00661310	      1.05690297	      3.36164502	    -19.23484405	      0.00000000	      8.07510089	     -1.45775891	     -4.28195167	      5.31542740	      2.28162085	     -9.30526816	      0.00000000	    -11.49543739	      0.74763457	     -3.00929583	     13.89813579	     -7.86276972	     39.82485115	     92.65124909	     87.71893008	     12.09882532	     -7.82517005	     28.57416032	     90.26520793	     84.24003800
      2.18333330	     -7.18300815	      2.54710710	     -4.75526381	      1.74250030	      0.87510695	     -0.17496689	      8.44216251	     -5.96820887	      1.65075321	      1.99417802	      3.94747149	    -18.72509565	      0.00000000	      9.47458104	     -1.63836951	     -5.00012763	      6.41652933	      2.68161277	     -8.70926239	      0.00000000	    -11.67335830	      0.78526011	     -2.84020045	     14.23564654	     -7.72651568	     39.76042455	     91.91145424	     88.06344394	     13.04071801	     -8.03692549	     29.63510863	     90.29607012	     84.89516388
      2.20000000	     -7.29650237	      2.52429391	     -4.77398681	      1.74093189	      0.87624335	     -0.17472200	      9.17362565	     -5.88352105	      1.30399474	      2.87096056	      3.91298523	    -18.70284383	      0.00000000	     10.24498806	     -1.82870931	     -5.52905561	      7.44540155	      2.53088417	     -8.63389353	      0.00000000	    -12.63376055	      0.83905861	     -2.87874331	     14.80506755	     -7.57911429	     39.51863123	     91.68215280	     88.14177735	     13.97571876	     -7.95290020	     29.63054786	     90.37508677	     85.03982031
      2.21666670	     -7.92807209	      2.57246458	     -4.75193343	      1.73977451	      0.87498762	     -0.17484915	     10.82730964	     -5.86726059	      0.99165612	      4.41345589	      4.41258365	    -18.32158585	      0.00000000	     11.95497684	     -2.07562104	     -6.34686262	      9.21208609	      3.13750987	     -7.84633655	      0.00000000	    -12.97630322	      0.87624779	     -2.86218329	     15.16409651	     -7.45772072	     39.09857241	     91.43529659	     88.55376112	     15.10711933	     -8.19752920	     30.37898689	     90.83568493	     85.69171373
